<svg xmlns="http://www.w3.org/2000/svg" width="167.11" height="156"><style>.st0{fill:#65c1c2}.st2{fill:#3c3d3d}.st4{fill:#8c4623}.st5{fill:#f3e128}.st6{fill:#f3c11d}.st9{fill:#040000}</style><path class="st0" d="M127.02 91.27c5.55-4.59 12.31-9.84 20.16-8.59 9.49 1.51 8.83 12.72 3.53 16.25-6.62 4.42-18.63.02-23.31-1.77-4.69-1.79-4.8-3.1-.38-5.89z"/><path d="M117.51 92.21c-3.06-9.83 3.41-27.39 10.24-34.61 7.25-7.66 18.37-10.95 26.44-5.68 7.82 5.1 8 19.26.05 27.23-10.32 10.35-27.97 14.22-32.15 15.54-4.17 1.33-4.58-2.48-4.58-2.48z" fill="#99d3d5"/><path class="st2" d="M121.31 132.34c-2.04 4.32-2.5 13.27-2.5 13.27-6.69 2.82-10.57 6.93-6.69 9.56 4.78 3.23 10.69-3.61 8.64-9.39-.33-2.83 1.2-11.13 2.18-12.74l-1.63-.7z"/><path d="M89.58 100.06c-11.9 6.73-16.25 30.99 10.66 36.6 26.91 5.61 48.92-11.66 46.1-26.37-3.09-16.1-32.06-24.2-56.76-10.23z" fill="#f29929"/><path class="st2" d="M85.8 112.7c-5.77 5.6-12.21 11.19-27.14 5.43l.85-4.41c5.77 2.54 12.72 5.26 23.91-4.24l2.38 3.22z"/><path class="st4" d="M123.38 93.42c-4.54-.68-9.47-.71-14.55.03 7.41 5.22 8.31 15.81 6.79 22.43-1.36 5.92-9.05 15.98-22.56 18.57 2.09.9 4.48 1.66 7.18 2.22 6.28 1.31 12.29 1.37 17.78.51 19.1-13.71 16.69-36.02 5.36-43.76z"/><path class="st4" d="M98.04 96.16a54.794 54.794 0 0 0-8.46 3.9c-6.68 3.78-10.98 13.08-8.71 21.5 12.61 2.87 28.38-11.49 17.17-25.4zm48.3 14.13c-1.16-6.04-5.96-10.95-12.8-14 8.23 6.96 11.72 22.5 2.13 33.97 7.74-5.41 12.01-12.98 10.67-19.97z"/><path class="st4" d="M143.15 107.51s23.52-3.98 23.93-2.91c.94 2.44-19.23 10.01-23.13 12.08l-.8-9.17z"/><path class="st5" d="M77.44 97.12c-6.22 0-5.95 6.54-1.19 6.82-2.96 4.15 2.23 7.81 4.74 4.74.3 4.45 6.26 3.38 6.82.59 3.26 3.85 8.89-.14 8.89-2.37 3.62.84 6.21-.79 5.93-3.85 4.18 0 4.06-6.57 2.67-7.41 3.9-1.95-.3-6.45-5.04-5.33-4.74 1.1-19.48 4.3-22.82 6.81z"/><path class="st2" d="M131.96 126.58c.04 5.42 3.97 14.78 3.97 14.78-4.81 4.49-5.63 12.75.08 13.63 6.46.99 5.81-10.14 2-14.42-1.73-2.73-4.24-11.96-4.04-14.08 0 0-.1-.85-1.05-.8-.95.06-.96.89-.96.89zm-12.27-15.86c2 8.92-.7 15.09-9.49 18.61l.91 4.2c7.21-2.63 11.57-6.48 12.92-11.32 1.3-4.64-.02-10.98-.93-13.03-.9-2.06-3.74-1-3.41 1.54z"/><path class="st5" d="M57.17 110.37c.54-2.17 3.8-3.26 3.98.36 3.62-.54 3.62 3.26 1.45 4.53 1.09 2.17.18 5.25-2.17 4.89.91 3.08-2.9 3.08-3.98 1.99-1.63 2.72-4.71-.36-3.8-2.72.89-2.35 4.52-9.05 4.52-9.05zm52.19 16.2c-1.75-2.66 1.48-4.9 3.6-2.39 1.38-1.5 4.78.75 3.52 2.98 3.04.07 3.42 4.23 1.38 4.96 1.19.81.24 3.61-1.53 3.28.15 2.52-1.2 3.67-3.05 2.26-2.03.73-3.52-.83-2.52-2-2.29-.56-3.32-7.63-1.4-9.09z"/><path class="st6" d="M113.14 133.88c-.46 5.61-5.38 9.77-10.99 9.31-5.61-.46-9.77-5.38-9.31-10.99.46-5.61 5.38-9.78 10.99-9.31 5.61.46 9.78 5.38 9.31 10.99zm18.11-68.7c0 24.26-20.68 36.63-49.51 36.63-26.98 0-49.19-10.8-49.19-36.31 0-21.62 22.86-39.48 49.84-39.48 31.95 0 48.86 17.53 48.86 39.16z"/><path d="M65.68 87.17c-.28 0-.56-.01-.83-.04-2.68-.24-4.97-1.64-5.98-3.66-.28-.56-.05-1.23.5-1.51a1.13 1.13 0 0 1 1.51.5c.65 1.3 2.29 2.26 4.17 2.43 2.72.25 5.42-1.13 7.4-3.77a1.128 1.128 0 0 1 1.9.15c1.74 3.36 5.14 3.55 6.52 3.49 2.87-.15 5.51-1.65 6.27-3.58.23-.58.88-.86 1.46-.63.58.23.86.88.63 1.46-1.09 2.75-4.48 4.8-8.25 4.99-3.19.16-5.98-1.06-7.75-3.33-2.13 2.27-4.79 3.5-7.55 3.5z" fill="#221714"/><path d="M77.06 25.83c-2.34-4.27 0-8.54 1.76-8.54s4.39 3.74 2.93 8.28c4.1-3.74 12.01-5.07 12.88-2.94.88 2.14-5.86 5.61-10.54 5.61 6.15-.27 10.54 4.27 9.08 6.14-1.46 1.87-9.08-1.07-11.71-4 1.76 4.54-.59 10.15-3.51 10.15-2.93 0-2.63-7.21-.59-9.88-4.98 3.47-11.42 4.54-12.3 2.67-.88-1.87 5.56-4.81 8.78-4.54-4.68-1.6-9.08-2.94-8.2-5.34.88-2.41 9.07.52 11.42 2.39z" fill="#f0882b"/><path class="st9" d="M89.94 55.06C91.11 45.1 109.89.84 116.88.01c4.98-.59 19.41 19.94 20.79 29.57.59 4.1-3.78 5.67-5.56.88-3.81-10.25-10.25-19.62-14.64-23.42-4.69 5.27-18.74 27.52-24.6 46.26-1.38 4.42-3.22 3.52-2.93 1.76zm-31.04 0C54.22 35.37 36.65 4.99 31.97 5.87c-4.69.88-16.1 24.3-16.98 29.87-.88 5.56 2.05 4.1 3.81.29 1.76-3.81 9.08-20.5 14.05-24.89C39.88 17.58 52.43 45.3 55.4 53.6c1.45 4.09 4.97 7.61 3.5 1.46z"/><ellipse class="st9" cx="103.99" cy="72.92" rx="5.27" ry="6.44"/><path class="st9" d="M55.68 73.11c0 3.45-2.23 6.25-4.98 6.25-2.75 0-4.98-2.8-4.98-6.25s2.23-6.25 4.98-6.25c2.75.01 4.98 2.8 4.98 6.25z"/><path class="st6" d="M58.71 112.55c0 5.7-4.62 10.32-10.32 10.32s-10.32-4.62-10.32-10.32 4.62-10.32 10.32-10.32c5.69-.01 10.32 4.61 10.32 10.32z"/><path class="st0" d="M6.26 67.86l39.52 38.46c1.73 2.33-.78 5.62-3.74 3.39L5.13 69.18l1.13-1.32z"/><path class="st0" d="M10.44 67.63c.23 2.88-1.91 5.4-4.79 5.63-2.88.23-5.4-1.91-5.63-4.79a5.224 5.224 0 0 1 4.79-5.63 5.23 5.23 0 0 1 5.63 4.79z"/></svg>